<?xml version="1.0" encoding="utf-8"?>
<!-- Generator: Adobe Illustrator 22.1.0, SVG Export Plug-In . SVG Version: 6.00 Build 0)  -->
<svg version="1.1" id="Layer_1" xmlns="http://www.w3.org/2000/svg" xmlns:xlink="http://www.w3.org/1999/xlink" x="0px" y="0px"
	 viewBox="0 0 177.553 175.017" enable-background="new 0 0 177.553 175.017" xml:space="preserve">
<path fill="#2095F2" d="M0,130.948c0,24.146,20.066,43.905,44.611,43.905h88.362c24.514,0,44.611-19.759,44.611-43.905V43.905
	C177.584,19.759,157.518,0,132.973,0H44.611C20.066,0,0,19.759,0,43.905V130.948z"/>
<path fill="#FFFFFF" d="M65.444,141.932c-1.166,0-2.362-0.307-3.467-0.951c-15.77-9.204-25.588-25.527-26.325-43.69
	c-0.031-0.276-0.061-0.552-0.061-0.828V48.754c0-2.7,1.565-5.124,4.019-6.259c2.454-1.105,5.339-0.706,7.364,1.074l46.329,40.469
	c2.853,2.485,3.16,6.842,0.644,9.695c-2.485,2.853-6.842,3.16-9.695,0.644L49.337,63.849V95.88c0,0.123,0.031,0.245,0.031,0.368
	c0.399,13.653,7.732,25.956,19.544,32.86c3.283,1.902,4.387,6.106,2.455,9.388C70.076,140.735,67.775,141.932,65.444,141.932"/>
<path fill="#FFFFFF" d="M88.761,148.252c-3.805,0-6.873-3.068-6.873-6.873s3.068-6.873,6.873-6.873
	c10.34,0,20.096-3.958,27.49-11.168c7.394-7.179,11.628-16.813,11.935-27.092c0-0.123,0-0.245,0.031-0.368V48.752
	c0-3.804,3.068-6.873,6.873-6.873s6.873,3.068,6.873,6.873v47.74c0,0.276-0.031,0.552-0.061,0.828
	c-0.552,13.622-6.259,26.355-16.077,35.897C115.853,142.914,102.691,148.252,88.761,148.252"/>
</svg>
